<svg id="f9c917ef-b871-4592-bc98-f02dbbee0204" data-name="Layer 1" xmlns="http://www.w3.org/2000/svg" viewBox="0 0 548.11 59"><title>logo</title><path d="M39.27,57.61,0,53.44H40Zm1.57-9L1.57,44.46h40Zm1.57-8.89L3.15,35.57h40ZM44,30.84,4.72,26.67h40ZM45.57,22,6.3,17.78h40Zm1.57-8.89L7.87,8.89H47.79ZM68.35,57.89l2.87-16.95H60.85l-3,16.95H42.33l8.52-49H66.5L63.44,25.84H73.91l3-16.95H92.53l-8.61,49Z" style="fill:#fff"/><path d="M112.81,44.46v1.85a20.46,20.46,0,0,0,.09,2.32L73.63,44.46Zm.37-4.72L73.91,35.57h40Zm1.57-8.89L75.48,26.67h40ZM116.33,22,77.06,17.78h40Zm.09,35.66L77.15,53.44h36.58A11.3,11.3,0,0,0,116.42,57.61Zm1.48-44.55L78.63,8.89h39.92Zm17.5,31.86a7.1,7.1,0,0,0,3.47-.6q1-.6,1.34-2.92l5.83-32.51h15.56l-4.82,27.6q-2.22,13-7.18,17.74T132.72,59q-9.54,0-13.34-2.82t-3.8-9.86a60,60,0,0,1,1-9.82l4.91-27.6h15.56l-6.3,36Z" style="fill:#fff"/><path d="M176.62,57.61l-39.27-4.17h40Zm1.57-9-39.27-4.17h40Zm1.57-8.89L140.5,35.57h40Zm1.57-8.89-39.27-4.17h40ZM182.92,22l-39.27-4.17h40Zm1.57-8.89L145.22,8.89h39.92Zm27.23-4.17q13.52,0,13.52,12.23A33,33,0,0,1,223,32.65a16.45,16.45,0,0,1-7.5,8.94l5.28,16.3H203.48L200,43.62h-2.22l-2.5,14.26H179.68l8.52-49Zm-3.43,16c0-.06,0-.37.09-.93q0-1.57-4.91-1.57h-2L200,30.93h3q4.26,0,4.82-2.78Z" style="fill:#fff"/><path d="M242.66,57.61l-39.27-4.17h40Zm1.57-9L205,44.46h40Zm1.57-8.89-39.27-4.17h40Zm1.57-8.89-39.27-4.17h40ZM249,22l-39.27-4.17h40Zm1.57-8.89L211.26,8.89h39.92Zm27.23-4.17q13.52,0,13.52,12.23a33,33,0,0,1-2.22,11.53,16.44,16.44,0,0,1-7.5,8.94l5.28,16.3H269.52L266,43.62h-2.22l-2.5,14.26H245.71l8.52-49Zm-3.43,16c0-.06,0-.37.09-.93q0-1.57-4.91-1.57h-2L266,30.93h3q4.26,0,4.82-2.78Z" style="fill:#fff"/><path d="M310.55,13.06,271.28,8.89h38.44ZM312.4,22l-39.27-4.17h38.44Zm1.85,8.89L275,26.67h38.44Zm.28,26.77-39.27-4.17h40Zm1.57-17.88-39.27-4.17h38.34Zm0,8.89-39.27-4.17h40ZM328.42,8.89l2,17.78H331L338.7,8.89h16.21l-19.64,35-2.32,14H317.31l2.41-14-7.22-35Z" style="fill:#fff"/><path d="M387.33,44.46v1.85a20.46,20.46,0,0,0,.09,2.32l-39.27-4.17Zm.37-4.72-39.27-4.17h40Zm1.58-8.89L350,26.67h40ZM390.85,22l-39.27-4.17h40Zm.09,35.66-39.27-4.17h36.58A11.3,11.3,0,0,0,390.94,57.61Zm1.48-44.55L353.15,8.89h39.92Zm17.5,31.86a7.1,7.1,0,0,0,3.47-.6q1-.6,1.34-2.92l5.83-32.51h15.56l-4.82,27.6q-2.22,13-7.18,17.74T407.24,59q-9.54,0-13.34-2.82t-3.8-9.86a59.91,59.91,0,0,1,1-9.82L396,8.89h15.56l-6.3,36Z" style="fill:#fff"/><path d="M451.14,57.61l-39.27-4.17h40Zm1.57-9-39.27-4.17h40Zm1.57-8.89L415,35.57h40Zm1.58-8.89-39.27-4.17h40ZM457.44,22l-39.27-4.17h40ZM459,13.06,419.74,8.89h39.92ZM480.78,46.4h-9l-2,11.48H454.2l8.52-49h23.53q13.43,0,13.43,12.69A32.08,32.08,0,0,1,498,32.14a31.23,31.23,0,0,1-3.61,7.59,15.8,15.8,0,0,1-5.51,4.72A16.65,16.65,0,0,1,480.78,46.4Zm2-21.49a4.65,4.65,0,0,1,.09-.56q0-1.95-4-1.94h-3L474,33.9h2.87a8.79,8.79,0,0,0,3.33-.51,2.61,2.61,0,0,0,1.48-2.18Z" style="fill:#fff"/><path d="M516.34,53.81a9.24,9.24,0,0,0,.74,3.8l-38.53-4.17h37.79Zm3.24-9.35a11.28,11.28,0,0,0-2.41,4l-37-4Zm1.3-4.72L481.7,35.57h39.64Zm.93-8.89-38.53-4.17h39Zm1-8.89-38-4.17h38.44Zm.93-8.89L486.43,8.89h37.79Zm-4.63,40.75q0-5.28,2.87-7.5t8.15-2.22q5.28,0,7.22,1.16A4,4,0,0,1,539.31,49q0,5.19-2.45,7.36t-8.15,2.18q-5.7,0-7.64-1.07A3.82,3.82,0,0,1,519.12,53.81ZM531.53,0h13.71q2.87,0,2.87,1.85a1.61,1.61,0,0,1-.09.65l-9.72,39.64H523.38L527.73,2.5Q528.1,0,531.53,0Z" style="fill:#fff"/></svg>