<svg id="894e2df6-74d2-4af9-93ac-0bb3bdcb6ce0" data-name="Layer 1" xmlns="http://www.w3.org/2000/svg" viewBox="0 0 490.76 51.15"><title>logo</title><path d="M33.89,49.72,0,46.12H34.53ZM35.25,42,1.36,38.37H35.89Zm1.36-7.67L2.72,30.69H37.25ZM38,26.62,4.08,23H38.61Zm1.36-7.67L5.44,15.35H40Zm1.36-7.67L6.79,7.67H41.24ZM42,3.6,8.15,0H42.6ZM62.9,50l3-17.66H54.51L51.47,50H36.29L45.08,0H60.27L57.15,17.66H68.58L71.7,0H86.88L78.09,50Z" style="fill:#fff"/><path d="M103.67,38.37V40a17.75,17.75,0,0,0,.08,2l-33.89-3.6Zm.32-4.08L70.1,30.69h34.53Zm1.36-7.67L71.46,23H106Zm1.36-7.67-33.89-3.6h34.53Zm.08,30.77L72.9,46.12h31.57A9.75,9.75,0,0,0,106.79,49.72Zm1.28-38.45L74.17,7.67h34.45Zm15.11,27.5a6.12,6.12,0,0,0,3-.52,3.53,3.53,0,0,0,1.16-2.52l5-28.06h13.43l-4.16,23.82q-1.92,11.19-6.19,15.31t-14.59,4.12q-8.23,0-11.51-2.44T106.07,40a51.75,51.75,0,0,1,.88-8.47l4.24-23.82h13.43l-5.44,31.09Z" style="fill:#fff"/><path d="M159.38,49.72l-33.89-3.6H160ZM160.74,42l-33.89-3.6h34.53Zm1.36-7.67-33.89-3.6h34.53Zm1.36-7.67L129.56,23h34.53Zm1.36-7.67-33.89-3.6h34.53Zm1.36-7.67-33.89-3.6h34.45Zm23.5-3.6q11.67,0,11.67,10.55a28.48,28.48,0,0,1-1.92,10,14.2,14.2,0,0,1-6.47,7.71L197.5,50H182.56l-3-12.31H177.6L175.44,50H162l7.35-42.28Zm-3,13.83c0-.05,0-.32.08-.8q0-1.36-4.24-1.36H180.8l-1.28,7.35h2.56q3.68,0,4.16-2.4Z" style="fill:#fff"/><path d="M217,49.72l-33.89-3.6h34.53ZM218.36,42l-33.89-3.6H219Zm1.36-7.67-33.89-3.6h34.53Zm1.36-7.67L187.19,23h34.53Zm1.36-7.67-33.89-3.6h34.53Zm1.36-7.67-33.89-3.6h34.45Zm23.5-3.6Q259,7.67,259,18.22a28.48,28.48,0,0,1-1.92,10,14.2,14.2,0,0,1-6.47,7.71L255.13,50H240.19l-3-12.31h-1.92L233.07,50H219.64L227,7.67Zm-3,13.83c0-.05,0-.32.08-.8q0-1.36-4.24-1.36h-1.76l-1.28,7.35h2.56q3.68,0,4.16-2.4Z" style="fill:#fff"/><path d="M276.23,11.27l-33.89-3.6h33.17Zm1.6,7.67-33.89-3.6h33.17Zm1.6,7.67L245.54,23h33.17Zm.24,23.1-33.89-3.6h34.53ZM281,34.29l-33.89-3.6h33.09ZM281,42l-33.89-3.6h34.53ZM291.66,7.67,293.42,23h.48l6.63-15.35h14L297.57,37.89l-2,12.07H282.07l2.08-12.07L277.91,7.67Z" style="fill:#fff"/><path d="M344.65,30.69q-.32,2.64-.4,3.6l-33.81-3.6Zm-.56,7.67a25.58,25.58,0,0,0,.24,3.6l-33.81-3.6Zm1.28-11.75L311.56,23H346Zm1.36-7.67-33.89-3.6h34.53Zm-1.28,27.18a10.89,10.89,0,0,0,2.56,3.6l-33.81-3.6ZM314.28,7.67h34.45l-.64,3.6ZM349.45,3.6,315.64,0h34.45Zm17.11,33.89a7.81,7.81,0,0,0,4-.76q1.2-.76,1.68-3.48L378.14,0h15.19l-5,28.06a63.49,63.49,0,0,1-2.76,11,20,20,0,0,1-4.36,7,14.88,14.88,0,0,1-6.91,4,40.65,40.65,0,0,1-10.43,1.12q-9.67,0-13.55-2.92t-3.88-10a59.91,59.91,0,0,1,1.12-10.15l5-28.06h15.19l-6.63,37.49Z" style="fill:#fff"/><path d="M406.44,49.72l-33.89-3.6h34.53ZM407.79,42l-33.89-3.6h34.53Zm1.36-7.67-33.89-3.6h34.53Zm1.36-7.67L376.62,23h34.53Zm1.36-7.67L378,15.35h34.53Zm1.36-7.67-33.89-3.6h34.45ZM432,40h-7.75L422.5,50H409.07l7.35-42.28h20.3q11.59,0,11.59,11a27.69,27.69,0,0,1-1.44,9.11,27,27,0,0,1-3.12,6.55A13.62,13.62,0,0,1,439,38.37,14.37,14.37,0,0,1,432,40Zm1.76-18.54a4,4,0,0,1,.08-.48q0-1.68-3.44-1.68h-2.56l-1.68,9.91h2.48a7.58,7.58,0,0,0,2.88-.44,2.25,2.25,0,0,0,1.28-1.88Z" style="fill:#fff"/><path d="M463.34,46.44a8,8,0,0,0,.64,3.28l-33.25-3.6h32.61Zm2.8-8.07a9.75,9.75,0,0,0-2.08,3.44l-32-3.44Zm1.12-4.08-33.81-3.6h34.21Zm.8-7.67L434.81,23h33.65Zm.88-7.67-32.77-3.6h33.17Zm.8-7.67-32.21-3.6h32.61Zm-4,35.17q0-4.56,2.48-6.47t7-1.92q4.56,0,6.23,1a3.48,3.48,0,0,1,1.68,3.24q0,4.48-2.12,6.35t-7,1.88q-4.92,0-6.59-.92A3.3,3.3,0,0,1,465.74,46.44ZM476.45,0h11.83q2.48,0,2.48,1.6a1.38,1.38,0,0,1-.08.56l-8.39,34.21H469.42l3.76-34.21Q473.49,0,476.45,0Z" style="fill:#fff"/></svg>